<svg width="129" height="114" viewBox="0 0 129 114" fill="none" xmlns="http://www.w3.org/2000/svg">
<mask id="mask0_130_424" style="mask-type:luminance" maskUnits="userSpaceOnUse" x="53" y="19" width="33" height="28">
<path d="M53.32 19.7024H85.312V46.92H53.32V19.7024Z" fill="white"/>
</mask>
<g mask="url(#mask0_130_424)">
<path d="M58.8039 36.7934C59.7539 36.7934 60.7093 36.8821 61.6338 36.9681C62.5314 37.0514 63.3793 37.1307 64.1977 37.1307C65.2888 37.1294 66.1327 36.9869 66.8516 36.6765C67.0518 36.5905 67.2641 36.5462 67.4818 36.5462C68.4305 36.5462 69.2125 37.3551 69.3953 38.1049C69.5485 38.7432 69.2891 39.3237 68.7167 39.6207C66.7683 40.6298 64.7983 41.3796 63.2154 41.9816C63.1428 42.0085 63.0716 42.0354 63.0004 42.0623C63.1737 42.2504 63.2799 42.5003 63.2799 42.7771V45.6326C64.7755 46.3569 66.4834 46.713 68.4332 46.713C70.5859 46.713 72.924 46.2763 75.3414 45.6165V42.7771C75.3414 42.1953 75.8104 41.7236 76.3895 41.7236H84.1685C84.7476 41.7236 85.2166 41.252 85.2166 40.6715V30.67C85.2166 30.0881 84.7476 29.6178 84.1685 29.6178H76.3895C75.8104 29.6178 75.3414 29.1461 75.3414 28.5643V20.7571C75.3414 20.1753 74.8711 19.7036 74.2919 19.7036H64.3294C63.7502 19.7036 63.2799 20.1753 63.2799 20.7571V28.5643C63.2799 29.1461 62.8109 29.6178 62.2318 29.6178H54.4528C53.8736 29.6178 53.4047 30.0881 53.4047 30.67V38.4812C55.2268 37.0084 57.2075 36.7934 58.8039 36.7934Z" fill="#9DDFD3"/>
</g>
<mask id="mask1_130_424" style="mask-type:luminance" maskUnits="userSpaceOnUse" x="42" y="36" width="45" height="18">
<path d="M42.312 36.9441H86.6853V53.5004H42.312V36.9441Z" fill="white"/>
</mask>
<g mask="url(#mask1_130_424)">
<path d="M64.7674 53.5045C54.18 53.5045 47.7273 45.1034 42.3241 43.4371C42.3241 43.4371 42.6547 43.4653 43.211 43.4653C45.1675 43.4653 49.9096 43.1025 52.7771 39.8211C54.5522 37.7907 56.6552 37.3231 58.8038 37.3231C59.7149 37.3231 60.6367 37.4077 61.5424 37.4924C62.4494 37.577 63.3417 37.6603 64.1977 37.6603C65.2149 37.6603 66.181 37.5421 67.0598 37.1645C67.1996 37.104 67.342 37.0771 67.4818 37.0771C68.542 37.0771 69.4947 38.6211 68.4748 39.1492C63.7032 41.6217 58.7797 42.5207 59.7458 43.5957C62.1404 46.259 65.1141 47.2426 68.4332 47.2426C73.6509 47.2426 79.722 44.8104 85.7353 42.647C85.8025 42.6228 85.867 42.6121 85.9288 42.6121C86.3883 42.6121 86.6719 43.2261 86.2688 43.5701C77.5371 51.0105 70.5388 53.5045 64.7674 53.5045Z" fill="#31326F"/>
</g>
<path d="M33.1353 74.6439H31.0176L30.4586 73.0421H27.3948L26.8466 74.6439H24.7611L27.8732 66.4578H30.0124L33.1353 74.6439ZM27.9323 71.3329H29.9426L28.9374 68.4895L27.9323 71.3329Z" fill="#31326F"/>
<path d="M39.4028 74.6439L37.1722 71.8596H36.7368V74.6439H34.6889V66.4578H37.6828C38.3305 66.4578 38.8975 66.5706 39.3813 66.7964C39.865 67.0221 40.2386 67.3433 40.5047 67.7585C40.7694 68.171 40.9024 68.6454 40.9024 69.1829C40.9024 69.7204 40.7694 70.192 40.5047 70.5965C40.2386 71.0023 39.861 71.3141 39.3705 71.5318L41.886 74.6439H39.4028ZM36.7368 68.1778V70.1773H37.5914C37.9811 70.1773 38.2848 70.0845 38.4998 69.8978C38.7148 69.7083 38.8223 69.4705 38.8223 69.1829C38.8223 68.8859 38.7148 68.644 38.4998 68.4573C38.2848 68.2718 37.9811 68.1778 37.5914 68.1778H36.7368Z" fill="#31326F"/>
<path d="M47.0869 74.7945C46.2982 74.7945 45.5672 74.6171 44.8939 74.2624C44.2194 73.9076 43.6846 73.4077 43.2868 72.7627C42.8891 72.1151 42.6902 71.376 42.6902 70.5482C42.6902 69.7245 42.8891 68.9895 43.2868 68.3445C43.6846 67.6968 44.2194 67.1942 44.8939 66.8395C45.5672 66.4847 46.2982 66.3074 47.0869 66.3074C47.8744 66.3074 48.6054 66.4847 49.2799 66.8395C49.9532 67.1942 50.4893 67.6968 50.8871 68.3445C51.2848 68.9895 51.4837 69.7245 51.4837 70.5482C51.4837 71.376 51.2848 72.1151 50.8871 72.7627C50.4893 73.4077 49.9532 73.9076 49.2799 74.2624C48.6054 74.6171 47.8744 74.7945 47.0869 74.7945ZM47.0869 72.924C47.5237 72.924 47.9201 72.8246 48.2748 72.623C48.6296 72.4187 48.905 72.1379 49.1026 71.7791C49.3028 71.4217 49.4036 71.0105 49.4036 70.5482C49.4036 70.09 49.3028 69.6815 49.1026 69.3227C48.905 68.9653 48.6296 68.6858 48.2748 68.4842C47.9201 68.28 47.5237 68.1779 47.0869 68.1779C46.6489 68.1779 46.2538 68.28 45.8991 68.4842C45.5443 68.6858 45.2662 68.9653 45.0659 69.3227C44.8684 69.6815 44.7703 70.09 44.7703 70.5482C44.7703 71.0105 44.8684 71.4217 45.0659 71.7791C45.2662 72.1379 45.5443 72.4187 45.8991 72.623C46.2538 72.8246 46.6489 72.924 47.0869 72.924Z" fill="#31326F"/>
<path d="M59.1922 71.392V66.4578H61.1595V74.6439H59.7297L55.4028 69.7311V74.6439H53.4356V66.4578H54.8546L59.1922 71.392Z" fill="#31326F"/>
<path d="M67.4942 74.7945C66.7054 74.7945 65.9744 74.6171 65.3012 74.2624C64.6267 73.9076 64.0918 73.4077 63.6941 72.7627C63.2963 72.1151 63.0975 71.376 63.0975 70.5482C63.0975 69.7245 63.2963 68.9895 63.6941 68.3445C64.0918 67.6968 64.6267 67.1942 65.3012 66.8395C65.9744 66.4847 66.7054 66.3074 67.4942 66.3074C68.2817 66.3074 69.0127 66.4847 69.6872 66.8395C70.3604 67.1942 70.8966 67.6968 71.2943 68.3445C71.6921 68.9895 71.891 69.7245 71.891 70.5482C71.891 71.376 71.6921 72.1151 71.2943 72.7627C70.8966 73.4077 70.3604 73.9076 69.6872 74.2624C69.0127 74.6171 68.2817 74.7945 67.4942 74.7945ZM67.4942 72.924C67.9309 72.924 68.3273 72.8246 68.6821 72.623C69.0368 72.4187 69.3123 72.1379 69.5098 71.7791C69.7101 71.4217 69.8108 71.0105 69.8108 70.5482C69.8108 70.09 69.7101 69.6815 69.5098 69.3227C69.3123 68.9653 69.0368 68.6858 68.6821 68.4842C68.3273 68.28 67.9309 68.1779 67.4942 68.1779C67.0562 68.1779 66.6611 68.28 66.3063 68.4842C65.9516 68.6858 65.6734 68.9653 65.4732 69.3227C65.2757 69.6815 65.1776 70.09 65.1776 70.5482C65.1776 71.0105 65.2757 71.4217 65.4732 71.7791C65.6734 72.1379 65.9516 72.4187 66.3063 72.623C66.6611 72.8246 67.0562 72.924 67.4942 72.924Z" fill="#31326F"/>
<path d="M81.47 71.5318L82.9213 66.4578H85.0713L82.4053 74.6439H80.6315L79.0513 69.3925L77.4603 74.6439H75.6919L73.0259 66.4578H75.192L76.6379 71.5103L78.2074 66.4578H79.9059L81.47 71.5318Z" fill="#31326F"/>
<path d="M88.8024 74.6439H86.7545V66.4578H88.8024V74.6439Z" fill="#31326F"/>
<path d="M94.6293 74.6439H92.5814V68.3068H90.5712V66.4578H96.618V68.3068H94.6293V74.6439Z" fill="#31326F"/>
<path d="M103.701 67.6725L100.46 72.8325H103.938V74.6439H97.8802V73.4291L101.127 68.2584H98.079V66.4578H103.701V67.6725Z" fill="#31326F"/>
<path d="M45.4993 80.6672V82.8119H45.2144V81.2155L44.5049 82.8119H44.306L43.5911 81.2101V82.8119H43.3063V80.6672H43.6126L44.4028 82.441L45.1983 80.6672H45.4993Z" fill="#8D97AD"/>
<path d="M47.6191 80.8822V81.6025H48.4038V81.839H47.6191V82.5807H48.4952V82.8119H47.3342V80.6511H48.4952V80.8822H47.6191Z" fill="#8D97AD"/>
<path d="M50.9566 80.6565C51.1931 80.6565 51.3973 80.6995 51.5693 80.7855C51.7413 80.8715 51.8717 80.9978 51.9617 81.1617C52.0544 81.323 52.1014 81.5152 52.1014 81.7369C52.1014 81.9599 52.0544 82.1507 51.9617 82.312C51.8717 82.4732 51.7413 82.5969 51.5693 82.6829C51.3973 82.7689 51.1931 82.8119 50.9566 82.8119H50.2847V80.6565H50.9566ZM50.9566 82.5807C51.2361 82.5807 51.4484 82.5082 51.5962 82.3604C51.7427 82.2099 51.8166 82.0029 51.8166 81.7369C51.8166 81.4681 51.7427 81.2585 51.5962 81.108C51.4484 80.9575 51.2361 80.8822 50.9566 80.8822H50.5696V82.5807H50.9566Z" fill="#8D97AD"/>
<path d="M54.1207 80.6565V82.8119H53.8358V80.6565H54.1207Z" fill="#8D97AD"/>
<path d="M55.8575 81.7315C55.8575 81.5205 55.9032 81.3311 55.9973 81.1618C56.094 80.9938 56.223 80.8635 56.3843 80.7694C56.5482 80.6726 56.731 80.6243 56.9325 80.6243C57.169 80.6243 57.3746 80.682 57.5507 80.7963C57.7254 80.9118 57.853 81.0731 57.9323 81.28H57.5937C57.5359 81.151 57.4499 81.0516 57.3357 80.979C57.2241 80.9078 57.0898 80.8715 56.9325 80.8715C56.782 80.8715 56.645 80.9078 56.524 80.979C56.4058 81.0516 56.3117 81.151 56.2445 81.28C56.176 81.409 56.1424 81.5595 56.1424 81.7315C56.1424 81.9035 56.176 82.054 56.2445 82.183C56.3117 82.312 56.4058 82.4128 56.524 82.484C56.645 82.5525 56.782 82.5861 56.9325 82.5861C57.0898 82.5861 57.2241 82.5525 57.3357 82.484C57.4499 82.4128 57.5359 82.312 57.5937 82.183H57.9323C57.853 82.3913 57.7254 82.5512 57.5507 82.6614C57.3746 82.7729 57.169 82.828 56.9325 82.828C56.731 82.828 56.5482 82.7823 56.3843 82.6883C56.223 82.5955 56.094 82.4665 55.9973 82.3013C55.9032 82.1333 55.8575 81.9438 55.8575 81.7315Z" fill="#8D97AD"/>
<path d="M60.9913 82.3335H60.0507L59.8733 82.8119H59.5777L60.357 80.6672H60.6849L61.4589 82.8119H61.1633L60.9913 82.3335ZM60.9107 82.1024L60.5183 81.0112L60.1313 82.1024H60.9107Z" fill="#8D97AD"/>
<path d="M63.4459 82.5807H64.1984V82.8119H63.161V80.6565H63.4459V82.5807Z" fill="#8D97AD"/>
<path d="M67.9475 81.7315C67.9475 81.5205 67.9932 81.3311 68.0872 81.1618C68.184 80.9938 68.313 80.8635 68.4742 80.7694C68.6382 80.6726 68.8209 80.6243 69.0225 80.6243C69.259 80.6243 69.4646 80.682 69.6406 80.7963C69.8153 80.9118 69.9429 81.0731 70.0222 81.28H69.6836C69.6258 81.151 69.5398 81.0516 69.4256 80.979C69.3141 80.9078 69.1797 80.8715 69.0225 80.8715C68.872 80.8715 68.7349 80.9078 68.614 80.979C68.4957 81.0516 68.4017 81.151 68.3345 81.28C68.2659 81.409 68.2324 81.5595 68.2324 81.7315C68.2324 81.9035 68.2659 82.054 68.3345 82.183C68.4017 82.312 68.4957 82.4128 68.614 82.484C68.7349 82.5525 68.872 82.5861 69.0225 82.5861C69.1797 82.5861 69.3141 82.5525 69.4256 82.484C69.5398 82.4128 69.6258 82.312 69.6836 82.183H70.0222C69.9429 82.3913 69.8153 82.5512 69.6406 82.6614C69.4646 82.7729 69.259 82.828 69.0225 82.828C68.8209 82.828 68.6382 82.7823 68.4742 82.6883C68.313 82.5955 68.184 82.4665 68.0872 82.3013C67.9932 82.1333 67.9475 81.9438 67.9475 81.7315Z" fill="#8D97AD"/>
<path d="M72.0869 80.8822V81.6025H72.8716V81.839H72.0869V82.5807H72.963V82.8119H71.802V80.6511H72.963V80.8822H72.0869Z" fill="#8D97AD"/>
<path d="M76.451 82.8119H76.1715L75.0373 81.0919V82.8119H74.7525V80.6511H75.0373L76.1715 82.3657V80.6511H76.451V82.8119Z" fill="#8D97AD"/>
<path d="M79.6189 80.6565V80.8822H79.033V82.8119H78.7535V80.8822H78.1622V80.6565H79.6189Z" fill="#8D97AD"/>
<path d="M81.6133 80.8822V81.6025H82.3981V81.839H81.6133V82.5807H82.4894V82.8119H81.3284V80.6511H82.4894V80.8822H81.6133Z" fill="#8D97AD"/>
<path d="M85.4184 82.8119L84.9024 81.9304H84.5638V82.8119H84.2789V80.6565H84.9777C85.1389 80.6565 85.2746 80.6861 85.3862 80.7425C85.5004 80.7962 85.585 80.8715 85.6388 80.9682C85.6952 81.0623 85.7248 81.1698 85.7248 81.2907C85.7248 81.4386 85.6818 81.5689 85.5958 81.6831C85.5125 81.7947 85.3862 81.8699 85.2142 81.9089L85.757 82.8119H85.4184ZM84.5638 81.7046H84.9777C85.1308 81.7046 85.2464 81.667 85.3217 81.5917C85.3969 81.5165 85.4345 81.4171 85.4345 81.2907C85.4345 81.1617 85.3969 81.0637 85.3217 80.9951C85.2464 80.9239 85.1308 80.8876 84.9777 80.8876H84.5638V81.7046Z" fill="#8D97AD"/>
</svg>
